<?xml version="1.0" encoding="utf-8" ?>
<svg xmlns="http://www.w3.org/2000/svg" xmlns:xlink="http://www.w3.org/1999/xlink" width="22" height="19" viewBox="0 0 22 19">
	<defs>
		<clipPath id="clip_0">
			<rect x="-1283.8452" y="-29.825928" width="1435.104" height="4279.4004" clip-rule="evenodd"/>
		</clipPath>
	</defs>
	<g clip-path="url(#clip_0)">
		<path fill="rgb(74,74,74)" stroke="none" transform="matrix(0.9966 0 0 0.9966 0.772202 0.0720215)" d="M0 1C0 1.55228 0.447715 2 1 2L3.17058 2L6.2322 8.57891C6.2306 8.58237 6.22901 8.58584 6.22744 8.58932L5.17669 10.9222C4.72306 11.9293 5.17176 13.1135 6.17889 13.5671C6.43709 13.6834 6.71706 13.7435 7.00025 13.7435L17.5021 13.7435C18.0544 13.7435 18.5021 13.2958 18.5021 12.7435C18.5021 12.1913 18.0544 11.7435 17.5021 11.7435L7.00025 11.7435L7.66971 10.2572L16.7133 10.2572L20.939 2.87668C21.2135 2.39739 21.0474 1.7864 20.5681 1.51198C20.0888 1.23757 19.4778 1.40365 19.2034 1.88294L15.5538 8.25721L8.28845 8.25721L4.44581 0L1 0C0.447715 0 0 0.447715 0 1ZM10 17C10 18.1046 9.10457 19 8 19C6.89543 19 6 18.1046 6 17C6 15.8954 6.89543 15 8 15C9.10457 15 10 15.8954 10 17ZM16 19C17.1046 19 18 18.1046 18 17C18 15.8954 17.1046 15 16 15C14.8954 15 14 15.8954 14 17C14 18.1046 14.8954 19 16 19Z" fill-rule="evenodd"/>
	</g>

</svg>