<?xml version="1.0" encoding="utf-8" ?>
<svg xmlns="http://www.w3.org/2000/svg" xmlns:xlink="http://www.w3.org/1999/xlink" width="18" height="29">
	<defs>
		<clipPath id="clip_0">
			<rect x="-1208.9" y="-2827.5" width="1368" height="4079.3" clip-rule="evenodd"/>
		</clipPath>
	</defs>
	<g clip-path="url(#clip_0)">
		<path fill="rgb(155,155,155)" stroke="none" transform="matrix(0.95 0 0 0.95 0.766666 1.125)" d="M1.99329 1.41421L1.41421 1.99329Q1.34173 2.06577 1.27695 2.14373Q1.21217 2.2217 1.15562 2.3045Q1.09907 2.38731 1.05122 2.47428Q1.00336 2.56125 0.964587 2.65168Q0.925815 2.74212 0.896442 2.83527Q0.867069 2.92842 0.847335 3.02353Q0.827602 3.11865 0.817668 3.21494Q0.807734 3.31124 0.807681 3.40794Q0.807628 3.50464 0.817457 3.60095Q0.827286 3.69726 0.846916 3.79239Q0.866546 3.88753 0.895818 3.98071Q0.925089 4.07389 0.963763 4.16437Q1.00244 4.25484 1.0502 4.34187Q1.09796 4.42889 1.15442 4.51176Q1.21088 4.59463 1.27557 4.67266Q1.34027 4.75069 1.41267 4.82326L11.0683 14.5L1.41267 24.1767Q1.34027 24.2493 1.27557 24.3273Q1.21087 24.4054 1.15442 24.4882Q1.09796 24.5711 1.0502 24.6581Q1.00244 24.7452 0.963763 24.8356Q0.925089 24.9261 0.895818 25.0193Q0.866546 25.1125 0.846916 25.2076Q0.827286 25.3027 0.817457 25.3991Q0.807628 25.4954 0.807681 25.5921Q0.807734 25.6888 0.817668 25.7851Q0.827602 25.8814 0.847335 25.9765Q0.867069 26.0716 0.896442 26.1647Q0.925815 26.2579 0.964588 26.3483Q1.00336 26.4387 1.05122 26.5257Q1.09907 26.6127 1.15562 26.6955Q1.21217 26.7783 1.27695 26.8563Q1.34173 26.9342 1.41421 27.0067L1.99329 27.5858Q2.06577 27.6583 2.14373 27.723Q2.22168 27.7878 2.30447 27.8444Q2.38726 27.9009 2.47422 27.9487Q2.56117 27.9966 2.65157 28.0353Q2.74197 28.074 2.83509 28.1034Q2.92821 28.1327 3.02328 28.1524Q3.11835 28.1721 3.2146 28.182Q3.31085 28.1919 3.4075 28.1919Q3.50415 28.1919 3.6004 28.182Q3.69665 28.1721 3.79172 28.1524Q3.88679 28.1327 3.97991 28.1034Q4.07303 28.074 4.16343 28.0353Q4.25383 27.9966 4.34078 27.9487Q4.42774 27.9009 4.51053 27.8444Q4.59332 27.7878 4.67127 27.723Q4.74923 27.6583 4.82171 27.5858L17.9075 14.5L4.82171 1.41421Q4.74923 1.34173 4.67127 1.27696Q4.59332 1.21218 4.51053 1.15565Q4.42774 1.09911 4.34078 1.05128Q4.25383 1.00345 4.16343 0.964701Q4.07303 0.925957 3.97991 0.896619Q3.88679 0.867281 3.79172 0.847588Q3.69665 0.827895 3.6004 0.818009Q3.50415 0.808122 3.4075 0.808122Q3.31085 0.808122 3.2146 0.818009Q3.11835 0.827895 3.02328 0.847588Q2.92821 0.867281 2.83509 0.896619Q2.74197 0.925957 2.65157 0.964701Q2.56117 1.00345 2.47422 1.05128Q2.38726 1.09911 2.30447 1.15565Q2.22168 1.21218 2.14373 1.27696Q2.06577 1.34173 1.99329 1.41421Z"/>
	</g>

</svg>