<?xml version="1.0" encoding="utf-8" ?>
<svg xmlns="http://www.w3.org/2000/svg" xmlns:xlink="http://www.w3.org/1999/xlink" width="31" height="31"  viewBox="0 0 31 31">
	<defs>
		<clipPath id="clip_0">
			<rect x="-1050" y="-129" width="1440" height="900" clip-rule="evenodd"/>
		</clipPath>
	</defs>
	<g clip-path="url(#clip_0)">
		<path fill="rgb(74,74,74)" stroke="none" transform="translate(0.00134277 0.999756)" d="M13.5648 14.8999L0.286055 28.1787C-0.0828516 28.5476 -0.0828516 29.1452 0.286055 29.5141C0.470273 29.6988 0.712148 29.7907 0.953555 29.7907C1.19543 29.7907 1.43684 29.6988 1.62105 29.5141L14.9996 16.1355L28.3782 29.5141C28.5629 29.6988 28.8043 29.7907 29.0457 29.7907C29.2871 29.7907 29.529 29.6988 29.7132 29.5141C30.0821 29.1452 30.0821 28.5476 29.7132 28.1787L16.435 14.8999L29.7221 1.6118C30.0911 1.24289 30.0911 0.645234 29.7221 0.276328C29.3532 -0.0921094 28.7556 -0.0921094 28.3871 0.276328L15.0001 13.6643L1.61168 0.276797C1.24277 -0.0916406 0.645586 -0.0916406 0.27668 0.276797C-0.0922266 0.645703 -0.0922266 1.24336 0.27668 1.61227L13.5648 14.8999Z"/>
	</g>

</svg>