<?xml version="1.0" encoding="utf-8" ?>
<svg xmlns="http://www.w3.org/2000/svg" xmlns:xlink="http://www.w3.org/1999/xlink" width="25" height="22" viewBox="0 0 25 22">
	<defs>
		<clipPath id="clip_0">
			<rect x="-1215.78" y="-28.899902" width="1425.6" height="4251.0601" clip-rule="evenodd"/>
		</clipPath>
	</defs>
	<g clip-path="url(#clip_0)">
		<path fill="rgb(74,74,74)" stroke="none" transform="matrix(0.99 0 0 0.99 0.93 0.800049)" d="M17.3653 0.0153777C19.141 0.0153777 20.8047 0.707375 22.0615 1.97347C23.3182 3.23957 24.0051 4.92087 24 6.70981C24 8.49876 23.308 10.1801 22.0513 11.4462L12.4757 21.0572C12.3434 21.1905 12.1654 21.2571 11.9924 21.2571C11.8194 21.2571 11.6413 21.1854 11.509 21.0521L1.95381 11.4257C0.697079 10.1596 2.78603e-05 8.48338 2.78603e-05 6.69444C-0.00506011 4.90549 0.686903 3.2242 1.94363 1.9581C3.19527 0.697124 4.86412 0 6.63474 0C8.41044 0 10.0844 0.702249 11.3411 1.96835L12.0076 2.63984L12.664 1.9786C13.9207 0.712501 15.5896 0.0153777 17.3653 0.0153777ZM11.9924 19.5912L21.0846 10.4671C22.0818 9.46243 22.6313 8.12969 22.6262 6.70981C22.6262 5.28994 22.0818 3.9572 21.0846 2.95252C20.0873 1.95297 18.7645 1.39937 17.3602 1.39937C15.9559 1.39937 14.6279 1.95297 13.6307 2.95765L12.491 4.10585C12.2213 4.37753 11.7888 4.37753 11.5192 4.10585L10.3693 2.9474C9.37206 1.94272 8.0441 1.38912 6.63474 1.38912C5.23046 1.38912 3.90759 1.94272 2.91543 2.94227C1.91819 3.94182 1.37378 5.27456 1.37378 6.69444C1.37378 8.11431 1.92328 9.44705 2.92052 10.4517L11.9924 19.5912Z" fill-rule="evenodd"/>
	</g>
	<defs>
		<clipPath id="clip_1">
			<rect x="-1215.78" y="-28.899902" width="1425.6" height="4251.0601" clip-rule="evenodd"/>
		</clipPath>
	</defs>
	<g clip-path="url(#clip_1)">
		<path fill="none" stroke="rgb(74,74,74)" stroke-width="0.5" stroke-miterlimit="4" transform="matrix(0.99 0 0 0.99 0.93 0.800049)" d="M17.3653 0.0153777C19.141 0.0153777 20.8047 0.707375 22.0615 1.97347C23.3182 3.23957 24.0051 4.92087 24 6.70981C24 8.49876 23.308 10.1801 22.0513 11.4462L12.4757 21.0572C12.3434 21.1905 12.1654 21.2571 11.9924 21.2571C11.8194 21.2571 11.6413 21.1854 11.509 21.0521L1.95381 11.4257C0.697079 10.1596 2.78603e-05 8.48338 2.78603e-05 6.69444C-0.00506011 4.90549 0.686903 3.2242 1.94363 1.9581C3.19527 0.697124 4.86412 0 6.63474 0C8.41044 0 10.0844 0.702249 11.3411 1.96835L12.0076 2.63984L12.664 1.9786C13.9207 0.712501 15.5896 0.0153777 17.3653 0.0153777ZM11.9924 19.5912L21.0846 10.4671C22.0818 9.46243 22.6313 8.12969 22.6262 6.70981C22.6262 5.28994 22.0818 3.9572 21.0846 2.95252C20.0873 1.95297 18.7645 1.39937 17.3602 1.39937C15.9559 1.39937 14.6279 1.95297 13.6307 2.95765L12.491 4.10585C12.2213 4.37753 11.7888 4.37753 11.5192 4.10585L10.3693 2.9474C9.37206 1.94272 8.0441 1.38912 6.63474 1.38912C5.23046 1.38912 3.90759 1.94272 2.91543 2.94227C1.91819 3.94182 1.37378 5.27456 1.37378 6.69444C1.37378 8.11431 1.92328 9.44705 2.92052 10.4517L11.9924 19.5912Z" fill-rule="evenodd"/>
	</g>

</svg>