<?xml version="1.0" encoding="utf-8" ?>
<svg xmlns="http://www.w3.org/2000/svg" xmlns:xlink="http://www.w3.org/1999/xlink" width="45" height="27">
	<defs>
		<clipPath id="clip_0">
			<rect x="-30" y="-70" width="375" height="6520" clip-rule="evenodd"/>
		</clipPath>
	</defs>
	<g clip-path="url(#clip_0)">
		<path fill="rgb(74,74,74)" stroke="none" d="M2 0L43 0Q43.1025 0 43.2034 0.00932124Q43.3044 0.0186425 43.4029 0.037209Q43.5014 0.0557754 43.5967 0.0834357Q43.692 0.111096 43.7833 0.147624Q43.8747 0.184153 43.9612 0.229252Q44.0478 0.27435 44.129 0.327651Q44.2101 0.380953 44.2852 0.442021Q44.3602 0.50309 44.4286 0.571429Q44.4969 0.639767 44.558 0.714818Q44.6191 0.789868 44.6724 0.871019Q44.7257 0.95217 44.7708 1.03876Q44.8159 1.12535 44.8524 1.21667Q44.8889 1.30799 44.9166 1.4033Q44.9442 1.49861 44.9628 1.59713Q44.9814 1.69564 44.9907 1.79657Q45 1.89749 45 2L45 1Q45 1.10251 44.9907 1.20343Q44.9814 1.30436 44.9628 1.40287Q44.9442 1.50139 44.9166 1.5967Q44.8889 1.69201 44.8524 1.78333Q44.8159 1.87465 44.7708 1.96124Q44.7257 2.04783 44.6724 2.12898Q44.619 2.21013 44.558 2.28518Q44.4969 2.36023 44.4286 2.42857Q44.3602 2.49691 44.2852 2.55798Q44.2101 2.61905 44.129 2.67235Q44.0478 2.72565 43.9613 2.77075Q43.8747 2.81585 43.7833 2.85238Q43.692 2.8889 43.5967 2.91656Q43.5014 2.94423 43.4029 2.96279Q43.3044 2.98136 43.2034 2.99068Q43.1025 3 43 3L2 3Q1.89749 3 1.79657 2.99068Q1.69564 2.98136 1.59713 2.96279Q1.49861 2.94423 1.4033 2.91656Q1.30799 2.8889 1.21667 2.85238Q1.12535 2.81585 1.03876 2.77075Q0.95217 2.72565 0.871019 2.67235Q0.789868 2.61905 0.714818 2.55798Q0.639767 2.49691 0.571429 2.42857Q0.50309 2.36023 0.442021 2.28518Q0.380953 2.21013 0.327651 2.12898Q0.27435 2.04783 0.229252 1.96124Q0.184153 1.87465 0.147624 1.78333Q0.111096 1.69201 0.0834357 1.5967Q0.0557754 1.50139 0.037209 1.40287Q0.0186425 1.30436 0.00932124 1.20343Q0 1.10251 0 1L0 2Q0 1.89749 0.00932124 1.79657Q0.0186425 1.69564 0.037209 1.59713Q0.0557754 1.49861 0.0834357 1.4033Q0.111096 1.30799 0.147624 1.21667Q0.184153 1.12535 0.229252 1.03876Q0.27435 0.95217 0.327651 0.871019Q0.380953 0.789868 0.442021 0.714818Q0.50309 0.639767 0.571429 0.571429Q0.639767 0.50309 0.714818 0.442021Q0.789868 0.380953 0.871019 0.327651Q0.95217 0.27435 1.03876 0.229252Q1.12535 0.184153 1.21667 0.147624Q1.30799 0.111096 1.4033 0.0834357Q1.49861 0.0557754 1.59713 0.037209Q1.69564 0.0186425 1.79657 0.00932124Q1.89749 0 2 0Z"/>
	</g>
	<defs>
		<clipPath id="clip_1">
			<rect x="-30" y="-70" width="375" height="6520" clip-rule="evenodd"/>
		</clipPath>
	</defs>
	<g clip-path="url(#clip_1)">
		<path fill="rgb(74,74,74)" stroke="none" transform="translate(0 12)" d="M2 0L33 0Q33.1025 0 33.2034 0.00932124Q33.3044 0.0186425 33.4029 0.037209Q33.5014 0.0557754 33.5967 0.0834357Q33.692 0.111096 33.7833 0.147624Q33.8747 0.184153 33.9612 0.229252Q34.0478 0.27435 34.129 0.327651Q34.2101 0.380953 34.2852 0.442021Q34.3602 0.50309 34.4286 0.571429Q34.4969 0.639767 34.558 0.714818Q34.6191 0.789868 34.6724 0.871019Q34.7257 0.95217 34.7708 1.03876Q34.8158 1.12535 34.8524 1.21667Q34.8889 1.30799 34.9166 1.4033Q34.9442 1.49861 34.9628 1.59713Q34.9814 1.69564 34.9907 1.79657Q35 1.89749 35 2L35 1Q35 1.10251 34.9907 1.20343Q34.9814 1.30436 34.9628 1.40287Q34.9442 1.50139 34.9166 1.5967Q34.8889 1.69201 34.8524 1.78333Q34.8158 1.87465 34.7708 1.96124Q34.7257 2.04783 34.6724 2.12898Q34.6191 2.21013 34.558 2.28518Q34.4969 2.36023 34.4286 2.42857Q34.3602 2.49691 34.2852 2.55798Q34.2101 2.61905 34.129 2.67235Q34.0478 2.72565 33.9612 2.77075Q33.8747 2.81585 33.7833 2.85238Q33.692 2.8889 33.5967 2.91656Q33.5014 2.94423 33.4029 2.96279Q33.3044 2.98136 33.2034 2.99068Q33.1025 3 33 3L2 3Q1.89749 3 1.79657 2.99068Q1.69564 2.98136 1.59713 2.96279Q1.49861 2.94423 1.4033 2.91656Q1.30799 2.8889 1.21667 2.85238Q1.12535 2.81585 1.03876 2.77075Q0.95217 2.72565 0.871019 2.67235Q0.789868 2.61905 0.714818 2.55798Q0.639767 2.49691 0.571429 2.42857Q0.50309 2.36023 0.442021 2.28518Q0.380953 2.21013 0.327651 2.12898Q0.27435 2.04783 0.229252 1.96124Q0.184153 1.87465 0.147624 1.78333Q0.111096 1.69201 0.0834357 1.5967Q0.0557754 1.50139 0.037209 1.40287Q0.0186425 1.30436 0.00932124 1.20343Q0 1.10251 0 1L0 2Q0 1.89749 0.00932124 1.79657Q0.0186425 1.69564 0.037209 1.59713Q0.0557754 1.49861 0.0834357 1.4033Q0.111096 1.30799 0.147624 1.21667Q0.184153 1.12535 0.229252 1.03876Q0.27435 0.95217 0.327651 0.871019Q0.380953 0.789868 0.442021 0.714818Q0.50309 0.639767 0.571429 0.571429Q0.639767 0.50309 0.714818 0.442021Q0.789868 0.380953 0.871019 0.327651Q0.95217 0.27435 1.03876 0.229252Q1.12535 0.184153 1.21667 0.147624Q1.30799 0.111096 1.4033 0.0834357Q1.49861 0.0557754 1.59713 0.037209Q1.69564 0.0186425 1.79657 0.00932124Q1.89749 0 2 0Z"/>
	</g>
	<defs>
		<clipPath id="clip_2">
			<rect x="-30" y="-70" width="375" height="6520" clip-rule="evenodd"/>
		</clipPath>
	</defs>
	<g clip-path="url(#clip_2)">
		<path fill="rgb(74,74,74)" stroke="none" transform="translate(0 24)" d="M1 0L24 0Q24.1027 0 24.2014 0.0186045Q24.3002 0.037209 24.3917 0.0738122Q24.4832 0.110415 24.5645 0.163826Q24.6458 0.217236 24.7143 0.285714Q24.7828 0.354193 24.8362 0.43551Q24.8896 0.516827 24.9262 0.608335Q24.9628 0.699843 24.9814 0.798563Q25 0.897283 25 1L25 2Q25 2.10272 24.9814 2.20144Q24.9628 2.30016 24.9262 2.39166Q24.8896 2.48317 24.8362 2.56449Q24.7828 2.64581 24.7143 2.71429Q24.6458 2.78276 24.5645 2.83617Q24.4832 2.88958 24.3917 2.92619Q24.3002 2.96279 24.2014 2.9814Q24.1027 3 24 3L17.314 3Q12.314 3 7.31401 3L1 3Q0.897283 3 0.798563 2.9814Q0.699843 2.96279 0.608335 2.92619Q0.516827 2.88958 0.43551 2.83617Q0.354193 2.78276 0.285714 2.71429Q0.217236 2.64581 0.163826 2.56449Q0.110415 2.48317 0.0738122 2.39166Q0.037209 2.30016 0.0186045 2.20144Q0 2.10272 0 2L0 1Q0 0.897283 0.0186045 0.798563Q0.037209 0.699843 0.0738122 0.608335Q0.110415 0.516827 0.163826 0.43551Q0.217236 0.354193 0.285714 0.285714Q0.354193 0.217236 0.43551 0.163826Q0.516827 0.110415 0.608335 0.0738122Q0.699843 0.037209 0.798563 0.0186045Q0.897283 0 1 0Z"/>
	</g>

</svg>