<?xml version="1.0" encoding="utf-8" ?>
<svg xmlns="http://www.w3.org/2000/svg" xmlns:xlink="http://www.w3.org/1999/xlink" width="26" height="24" viewBox="0 0 26 24">
	<defs>
		<clipPath id="clip_0">
			<rect x="-248.7998" y="-333.76001" width="1382.4" height="1160.64" clip-rule="evenodd"/>
		</clipPath>
	</defs>
	<g clip-path="url(#clip_0)">
		<path fill="rgb(219, 80, 66)" stroke="rgb(219, 80, 66)" stroke-width="1" stroke-miterlimit="4" transform="matrix(0.96 0 0 0.96 0.833008 0.320068)" d="M12.5718 19.1972L19.4851 23.3698Q19.529 23.3962 19.5711 23.4178Q19.6133 23.4393 19.6533 23.4557Q19.6934 23.4721 19.731 23.4833Q19.7687 23.4945 19.8036 23.5003Q19.8386 23.5061 19.8705 23.5065Q19.9025 23.5069 19.9312 23.5019Q19.9598 23.4969 19.985 23.4866Q20.0102 23.4762 20.0317 23.4606Q20.0532 23.445 20.0708 23.4242Q20.0884 23.4035 20.102 23.3777Q20.1156 23.352 20.1251 23.3215Q20.1346 23.291 20.1398 23.2559Q20.1451 23.2209 20.1461 23.1816Q20.1471 23.1424 20.1439 23.0992Q20.1406 23.056 20.1332 23.0093Q20.1257 22.9626 20.114 22.9126L18.2795 15.0485L24.3879 9.75678Q24.4266 9.72323 24.4601 9.68979Q24.4936 9.65636 24.5216 9.62332Q24.5496 9.59028 24.5718 9.55791Q24.594 9.52553 24.6103 9.49409Q24.6267 9.46265 24.6369 9.4324Q24.6472 9.40214 24.6513 9.37332Q24.6554 9.3445 24.6533 9.31735Q24.6513 9.2902 24.643 9.26494Q24.6348 9.23968 24.6205 9.21651Q24.6062 9.19335 24.5859 9.17246Q24.5656 9.15158 24.5395 9.13316Q24.5134 9.11474 24.4817 9.09892Q24.45 9.0831 24.413 9.07001Q24.376 9.05693 24.3339 9.04669Q24.2918 9.03644 24.2451 9.02913Q24.1983 9.02181 24.1473 9.01748L16.1045 8.33513L12.9621 0.920718Q12.9421 0.873528 12.9206 0.831357Q12.899 0.789187 12.8762 0.75238Q12.8534 0.715574 12.8294 0.684431Q12.8054 0.653289 12.7804 0.628065Q12.7555 0.602841 12.7298 0.58374Q12.7041 0.56464 12.6779 0.551819Q12.6516 0.538998 12.6251 0.532561Q12.5985 0.526125 12.5718 0.526125Q12.5452 0.526125 12.5186 0.532561Q12.4921 0.538998 12.4658 0.551819Q12.4396 0.56464 12.4139 0.58374Q12.3882 0.602841 12.3633 0.628065Q12.3383 0.653289 12.3143 0.684432Q12.2903 0.715574 12.2675 0.75238Q12.2446 0.789187 12.2231 0.831357Q12.2016 0.873528 12.1816 0.920718L9.03915 8.33513L0.99642 9.01748Q0.94535 9.02181 0.898591 9.02913Q0.851832 9.03644 0.809766 9.04669Q0.7677 9.05693 0.730669 9.07001Q0.693639 9.0831 0.661946 9.09892Q0.630254 9.11474 0.604158 9.13316Q0.578061 9.15158 0.557774 9.17246Q0.537488 9.19335 0.523175 9.21651Q0.508863 9.23968 0.500642 9.26494Q0.492421 9.2902 0.490359 9.31735Q0.488296 9.3445 0.492409 9.37332Q0.496522 9.40214 0.506776 9.4324Q0.517031 9.46265 0.533343 9.49409Q0.549656 9.52553 0.571894 9.55791Q0.594131 9.59028 0.622112 9.62332Q0.650094 9.65636 0.68359 9.68979Q0.717087 9.72323 0.755826 9.75678L6.86422 15.0485L5.02963 22.9126Q5.01798 22.9626 5.01051 23.0093Q5.00304 23.056 4.99979 23.0992Q4.99655 23.1424 4.99756 23.1816Q4.99858 23.2209 5.00384 23.2559Q5.00911 23.291 5.01858 23.3215Q5.02804 23.352 5.04164 23.3777Q5.05524 23.4035 5.07286 23.4242Q5.09048 23.445 5.11197 23.4606Q5.13346 23.4762 5.15865 23.4866Q5.18384 23.4969 5.21252 23.5019Q5.24121 23.5069 5.27315 23.5065Q5.30509 23.5061 5.34003 23.5003Q5.37498 23.4945 5.41263 23.4833Q5.45029 23.4721 5.49036 23.4557Q5.53042 23.4393 5.57256 23.4178Q5.61471 23.3962 5.65859 23.3698L12.5718 19.1972Z"/>
	</g>

</svg>