<?xml version="1.0" encoding="utf-8" ?>
<svg xmlns="http://www.w3.org/2000/svg" xmlns:xlink="http://www.w3.org/1999/xlink" width="18" height="20" viewBox="0 0 18 20">
	<defs>
		<clipPath id="clip_0">
			<rect x="-1171" y="-30" width="1440" height="4294" clip-rule="evenodd"/>
		</clipPath>
	</defs>
	<g clip-path="url(#clip_0)">
		<path fill="rgb(74,74,74)" stroke="none" d="M9 10C11.7623 10 14 7.76228 14 5C14 2.23772 11.7623 0 9 0C6.23772 0 4 2.23772 4 5C4 7.76228 6.23772 10 9 10ZM9 2C10.6577 2 12 3.34228 12 5C12 6.65772 10.6577 8 9 8C7.34228 8 6 6.65772 6 5C6 3.34228 7.34228 2 9 2ZM18 19C18 19.5523 17.5523 20 17 20C16.4477 20 16 19.5523 16 19L16 17C16 15.5399 12.156 14 9 14C5.844 14 2 15.5399 2 17C2 17.5523 1.55228 18 1 18C0.447715 18 0 17.5523 0 17C0 13.9353 4.83098 12 9 12C13.169 12 18 13.9353 18 17L18 19Z" fill-rule="evenodd"/>
	</g>

</svg>